<?xml version="1.0" standalone="no"?><!DOCTYPE svg PUBLIC "-//W3C//DTD SVG 1.1//EN" "http://www.w3.org/Graphics/SVG/1.1/DTD/svg11.dtd"><svg t="1706455222006" class="icon" viewBox="0 0 1024 1024" version="1.1" xmlns="http://www.w3.org/2000/svg" p-id="1914" xmlns:xlink="http://www.w3.org/1999/xlink" width="200" height="200"><path d="M411.989333 277.973333c-20.565333 63.573333-18.602667 109.312 5.930667 137.088 24.490667 27.818667 58.88 55.338667 121.472 67.413334-19.669333 82.474667 54.570667 95.488 54.570667 95.488 52.053333 11.221333 92.032-38.826667 92.032-38.826667 75.52 26.88 118.357333 11.178667 128.597333-47.061333 15.36-87.381333-15.786667-149.76-46.08-161.792-19.114667-1.237333-49.450667 6.912-66.901333-33.706667-30.592-42.581333-83.669333-47.616-107.648-49.152-29.312-0.256-27.605333-26.88-91.306667-27.648-48.554667 6.4-78.762667 25.770667-90.666667 58.197333z" fill="#FEB8A5" p-id="1915"></path><path d="M376.32 189.653333c-42.069333 32.426667-70.528 82.176-82.944 153.173334a32 32 0 0 1-17.066667 23.04 2854.826667 2854.826667 0 0 0-114.474666 60.757333l0.554666 0.341333c11.562667 7.253333 26.752 17.962667 37.077334 33.322667 11.605333 17.322667 16.213333 39.509333 6.741333 63.616-5.077333 12.842667-12.117333 27.477333-18.944 41.728l-2.986667 6.144a613.973333 613.973333 0 0 0-21.845333 49.706667c-6.144 16.384-9.813333 30.592-10.496 42.282666-0.725333 11.434667 1.493333 18.261333 4.736 22.826667 3.584 4.992 9.344 9.216 20.266667 12.8 11.52 3.797333 25.6 5.888 44.032 8.32l5.162666 0.64c33.237333 4.309333 78.933333 10.24 115.285334 39.082667 46.506667 36.949333 79.402667 91.52 100.565333 160.512a32 32 0 1 1-61.184 18.773333c-18.56-60.586667-45.610667-102.528-79.189333-129.152-21.76-17.322667-50.944-21.418667-89.002667-26.453333-17.408-2.261333-37.546667-4.949333-55.68-10.922667-18.773333-6.186667-38.186667-16.682667-52.266667-36.309333-14.378667-20.053333-17.92-42.965333-16.64-64 1.28-20.778667 7.338667-41.728 14.421334-60.8 7.168-19.2 16.128-38.186667 24.149333-54.954667l2.986667-6.314667c7.04-14.592 12.928-26.88 17.066666-37.376 1.024-2.474667 0.853333-2.730667-0.256-4.352l-0.042666-0.128c-2.474667-3.669333-8.064-8.576-17.792-14.677333a330.581333 330.581333 0 0 0-14.378667-8.277333l-1.194667-0.682667a306.389333 306.389333 0 0 1-13.653333-7.893333 63.488 63.488 0 0 1-16.597333-14.165334 37.802667 37.802667 0 0 1-7.936-19.754666 35.968 35.968 0 0 1 7.68-25.472c5.632-7.253333 14.677333-13.525333 21.589333-18.090667 8.277333-5.504 19.157333-11.989333 32.256-19.456a2682.88 2682.88 0 0 1 97.066667-51.626667c16.085333-75.264 50.005333-135.338667 103.808-176.853333 57.173333-44.117333 132.821333-64.341333 223.402666-64.341333 139.477333 0 237.738667 59.648 300.373334 139.093333 61.738667 78.336 88.362667 175.018667 88.362666 251.221333 0 149.034667-120.064 303.957333-291.2 347.818667 0.896 2.389333 2.176 5.290667 3.925334 8.746667 8.96 17.92 26.88 42.496 55.722666 74.282666a32 32 0 1 1-47.36 43.008c-30.165333-33.237333-52.650667-62.890667-65.578666-88.533333-11.861333-23.637333-21.077333-55.168-2.816-81.749333a32 32 0 0 1 20.394666-13.312c155.861333-29.738667 262.912-167.552 262.912-290.261334 0-63.146667-22.613333-145.578667-74.624-211.626666-51.157333-64.853333-131.242667-114.688-250.112-114.688-81.578667 0-141.824 18.218667-184.32 50.986666z m279.466667 612.992v0.085334-0.085334z" fill="#333333" p-id="1916"></path><path d="M543.445333 438.997333a32 32 0 0 1 20.224 40.448c-5.376 16.213333 0.170667 27.861333 11.264 38.698667a92.074667 92.074667 0 0 0 25.173334 17.066667l0.213333 0.085333a32 32 0 0 1-24.661333 59.050667l12.245333-29.568a3700.906667 3700.906667 0 0 1-12.245333 29.568h-0.085334l-0.170666-0.085334-0.341334-0.170666-1.024-0.426667a124.245333 124.245333 0 0 1-13.738666-7.125333 155.946667 155.946667 0 0 1-29.994667-22.528c-21.504-20.906667-43.264-57.045333-27.306667-104.789334a32 32 0 0 1 40.448-20.224z" fill="#333333" p-id="1917"></path><path d="M699.946667 500.906667a32 32 0 0 1 5.034666 45.013333l-25.002666-19.968 25.002666 19.968-0.085333 0.085333-0.042667 0.085334-0.213333 0.256-0.597333 0.725333a118.912 118.912 0 0 1-8.618667 9.258667c-5.589333 5.546667-13.738667 12.8-24.064 19.754666-20.181333 13.610667-52.181333 28.16-90.154667 20.010667a32 32 0 0 1 13.44-62.592c14.08 3.029333 28.117333-1.834667 40.96-10.496a103.466667 103.466667 0 0 0 18.602667-16.213333l0.810667-0.853334m44.928-4.992a32 32 0 0 0-44.885334 4.864l44.885334-4.864z" fill="#333333" p-id="1918"></path><path d="M814.08 447.402667a32 32 0 0 1 26.026667 37.034666c-6.442667 36.565333-25.002667 66.986667-60.373334 79.957334-32.042667 11.733333-70.485333 5.930667-110.506666-8.32a32 32 0 1 1 21.504-60.288c35.498667 12.629333 56.234667 12.458667 66.986666 8.533333 7.552-2.773333 15.530667-9.258667 19.328-30.976a32 32 0 0 1 37.034667-25.941333zM390.698667 377.898667a32 32 0 0 1 45.184 2.858666c20.650667 23.466667 49.066667 46.634667 103.509333 57.173334a32 32 0 1 1-12.117333 62.805333c-70.698667-13.653333-111.061333-45.482667-139.434667-77.653333a32 32 0 0 1 2.858667-45.184z" fill="#333333" p-id="1919"></path><path d="M415.786667 234.368a32 32 0 0 1 20.608 40.32c-19.882667 61.44-13.098667 91.818667-0.512 106.069333a32 32 0 1 1-48.042667 42.325334c-36.437333-41.386667-33.621333-102.4-12.330667-168.106667a32 32 0 0 1 40.277334-20.608z" fill="#333333" p-id="1920"></path><path d="M586.538667 202.24h1.664a32 32 0 0 1 1.792 0.085333c23.466667 1.493333 91.392 6.485333 131.584 62.464a32.128 32.128 0 0 1 3.413333 5.973334c2.816 6.698667 5.504 9.642667 6.954667 10.965333a10.410667 10.410667 0 0 0 4.565333 2.346667 41.984 41.984 0 0 0 10.154667 0.981333h5.205333l2.688-0.085333c2.816 0 6.357333 0 9.984 0.213333a32 32 0 0 1 9.770667 2.218667c27.733333 10.965333 47.616 40.021333 58.581333 71.936 11.562667 33.621333 15.701333 76.586667 7.168 125.098666a32 32 0 1 1-63.018667-11.093333c6.826667-38.826667 3.072-70.741333-4.693333-93.184-6.229333-18.261333-13.952-27.349333-18.474667-31.146667a284.586667 284.586667 0 0 1-7.68 0 104.192 104.192 0 0 1-25.941333-2.986666c-21.333333-5.674667-40.021333-19.925333-52.437333-46.250667-21.077333-26.922667-57.344-32-81.194667-33.536-21.845333-0.512-37.248-10.965333-44.928-16.213333a79.061333 79.061333 0 0 0-3.072-2.005334c-6.016-3.626667-15.530667-8.746667-40.106667-9.386666-40.661333 5.802667-56.448 20.693333-62.506666 37.205333a32 32 0 0 1-60.117334-22.016c17.664-48.085333 61.781333-71.765333 116.565334-78.933333a32 32 0 0 1 4.522666-0.256c37.418667 0.426667 58.538667 8.789333 74.752 18.602666 12.373333 7.509333 13.525333 8.789333 14.805334 8.96zM627.669333 565.888a32 32 0 0 1-20.224 40.448c-23.125333 7.722667-41.984 25.173333-56.96 46.805333a237.141333 237.141333 0 0 0-29.354666 60.586667 32 32 0 1 1-60.928-19.456 301.141333 301.141333 0 0 1 37.674666-77.568c19.541333-28.288 48.469333-57.429333 89.344-71.04a32 32 0 0 1 40.448 20.224z" fill="#333333" p-id="1921"></path><path d="M663.850667 402.261333c-10.538667-88.32-132.693333-136.448-175.829334-122.368-43.093333 14.08 4.181333 35.328 31.744 41.002667s55.125333 11.349333 64.981334 19.114667c9.898667 7.808 39.552 31.146667 41.642666 48.810666 2.133333 17.664-45.824 4.608-61.781333-4.010666-15.957333-8.576-54.058667 8.874667-44.202667 16.64 9.898667 7.765333 67.114667 36.778667 84.778667 34.688 17.664-2.133333 27.562667 5.674667 47.317333 21.205333 19.754667 15.573333 64.981333 19.114667 62.890667 1.450667-2.133333-17.664-44.245333-45.482667-51.541333-56.533334z" fill="#92C0C5" p-id="1922"></path><path d="M529.92 291.072c-16.938667-3.754667-30.464-3.669333-38.613333-1.024a10.666667 10.666667 0 1 1-6.613334-20.266667c13.44-4.394667 31.36-3.626667 49.792 0.426667 18.773333 4.181333 39.424 12.032 58.965334 23.210667 37.888 21.674667 73.642667 57.173333 80.597333 104.533333a110.933333 110.933333 0 0 0 7.68 7.338667l6.4 5.546666c3.413333 2.986667 7.168 6.229333 10.581333 9.301334 5.973333 5.376 12.117333 11.264 16.981334 17.152 4.565333 5.504 9.386667 12.586667 10.24 20.266666a18.645333 18.645333 0 0 1-3.072 12.928 21.973333 21.973333 0 0 1-9.258667 7.466667 49.493333 49.493333 0 0 1-21.973333 3.242667c-14.976-0.682667-33.578667-5.930667-45.738667-15.445334-20.437333-16.085333-26.88-20.522667-39.466667-19.029333-6.912 0.853333-15.786667-1.322667-23.765333-3.84a264.96 264.96 0 0 1-27.136-10.666667 401.92 401.92 0 0 1-25.216-12.373333 132.138667 132.138667 0 0 1-16.469333-10.026667 14.250667 14.250667 0 0 1-5.589334-12.8 17.450667 17.450667 0 0 1 4.864-9.941333c3.968-4.224 9.898667-7.552 15.658667-9.941333 5.973333-2.474667 12.928-4.394667 19.797333-5.034667a37.290667 37.290667 0 0 1 21.12 3.328c6.741333 3.669333 21.504 8.746667 34.218667 10.666667 5.461333 0.853333 9.514667 0.981333 12.032 0.64a10.666667 10.666667 0 0 1 21.077333 0.810666 17.152 17.152 0 0 1-3.925333 13.482667 20.309333 20.309333 0 0 1-10.581333 6.144c-6.613333 1.706667-14.677333 1.152-21.845334 0.042667a146.432 146.432 0 0 1-41.130666-13.013334 16.938667 16.938667 0 0 0-8.96-0.853333 49.664 49.664 0 0 0-15.914667 4.522667l5.76 3.2c6.826667 3.626667 15.189333 7.808 23.850667 11.690666 8.661333 3.882667 17.365333 7.381333 24.832 9.770667 8.021333 2.56 12.928 3.242667 14.805333 2.986667 22.101333-2.602667 35.328 7.808 53.546667 22.186666l1.621333 1.28c7.68 5.973333 21.546667 10.325333 33.578667 10.88a31.36 31.36 0 0 0 11.733333-1.194666 32.426667 32.426667 0 0 0-5.12-7.765334 151.594667 151.594667 0 0 0-14.848-14.933333c-3.413333-3.072-6.698667-5.888-9.813333-8.618667-2.389333-2.048-4.693333-4.010667-6.997334-6.101333a78.549333 78.549333 0 0 1-12.672-13.141333l-1.365333-2.090667-0.341333-2.517333c-4.693333-39.381333-34.56-71.082667-70.4-91.562667a193.28 193.28 0 0 0-52.906667-20.906667z m87.893333 95.232s0.042667 0 0 0z" fill="#333333" p-id="1923"></path><path d="M578.176 324.608c4.778667 1.877333 9.472 4.138667 13.184 7.04l0.085333 0.042667c4.949333 3.925333 15.274667 12.032 24.661334 21.504 4.693333 4.778667 9.386667 10.112 13.141333 15.658666 3.626667 5.418667 6.954667 11.818667 7.765333 18.688a10.666667 10.666667 0 0 1-21.205333 2.56 23.424 23.424 0 0 0-4.266667-9.301333 91.306667 91.306667 0 0 0-10.624-12.586667 247.466667 247.466667 0 0 0-22.741333-19.797333 32.256 32.256 0 0 0-7.722667-3.925333 141.141333 141.141333 0 0 0-14.336-4.522667c-11.178667-2.986667-24.618667-5.76-38.485333-8.618667-14.421333-2.986667-35.029333-10.112-46.848-19.413333a32.170667 32.170667 0 0 1-8.192-9.088 18.346667 18.346667 0 0 1-1.92-14.378667 22.186667 22.186667 0 0 1 9.088-11.733333c3.968-2.773333 9.002667-5.034667 14.933333-6.954667a10.666667 10.666667 0 1 1 6.613334 20.266667 40.106667 40.106667 0 0 0-8.832 3.84c0.426667 0.384 0.896 0.810667 1.536 1.28 7.978667 6.314667 24.789333 12.586667 37.930666 15.274667l0.213334 0.042666c13.610667 2.816 27.648 5.717333 39.509333 8.874667 5.973333 1.621333 11.605333 3.328 16.512 5.248z" fill="#333333" p-id="1924"></path></svg>