<svg class="icon" viewBox="0 0 1024 1024" xmlns="http://www.w3.org/2000/svg" width="200" height="200"><path d="M411.99 277.973c-20.566 63.574-18.603 109.312 5.93 137.088 24.49 27.819 58.88 55.339 121.472 67.414-19.67 82.474 54.57 95.488 54.57 95.488 52.054 11.221 92.033-38.827 92.033-38.827 75.52 26.88 118.357 11.179 128.597-47.061 15.36-87.382-15.787-149.76-46.08-161.792-19.115-1.238-49.45 6.912-66.901-33.707-30.592-42.581-83.67-47.616-107.648-49.152-29.312-.256-27.606-26.88-91.307-27.648-48.555 6.4-78.763 25.77-90.667 58.197z" fill="#FEB8A5"/><path d="M376.32 189.653c-42.07 32.427-70.528 82.176-82.944 153.174a32 32 0 0 1-17.067 23.04 2854.827 2854.827 0 0 0-114.474 60.757l.554.341c11.563 7.254 26.752 17.963 37.078 33.323 11.605 17.323 16.213 39.51 6.741 63.616-5.077 12.843-12.117 27.477-18.944 41.728l-2.987 6.144a613.973 613.973 0 0 0-21.845 49.707c-6.144 16.384-9.813 30.592-10.496 42.282-.725 11.435 1.493 18.262 4.736 22.827 3.584 4.992 9.344 9.216 20.267 12.8 11.52 3.797 25.6 5.888 44.032 8.32l5.162.64c33.238 4.31 78.934 10.24 115.286 39.083 46.506 36.949 79.402 91.52 100.565 160.512A32 32 0 1 1 380.8 926.72c-18.56-60.587-45.61-102.528-79.19-129.152-21.76-17.323-50.943-21.419-89.002-26.453-17.408-2.262-37.547-4.95-55.68-10.923-18.773-6.187-38.187-16.683-52.267-36.31-14.378-20.053-17.92-42.965-16.64-64 1.28-20.778 7.339-41.727 14.422-60.8 7.168-19.2 16.128-38.186 24.149-54.954l2.987-6.315c7.04-14.592 12.928-26.88 17.066-37.376 1.024-2.474.854-2.73-.256-4.352l-.042-.128c-2.475-3.669-8.064-8.576-17.792-14.677a330.581 330.581 0 0 0-14.379-8.277l-1.195-.683a306.39 306.39 0 0 1-13.653-7.893 63.488 63.488 0 0 1-16.597-14.166 37.803 37.803 0 0 1-7.936-19.754 35.968 35.968 0 0 1 7.68-25.472c5.632-7.254 14.677-13.526 21.589-18.091 8.277-5.504 19.157-11.99 32.256-19.456a2682.88 2682.88 0 0 1 97.067-51.627c16.085-75.264 50.005-135.338 103.808-176.853 57.173-44.117 132.821-64.341 223.402-64.341 139.478 0 237.739 59.648 300.374 139.093 61.738 78.336 88.362 175.019 88.362 251.221 0 149.035-120.064 303.958-291.2 347.819.896 2.39 2.176 5.29 3.926 8.747 8.96 17.92 26.88 42.496 55.722 74.282a32 32 0 1 1-47.36 43.008c-30.165-33.237-52.65-62.89-65.578-88.533-11.862-23.637-21.078-55.168-2.816-81.75a32 32 0 0 1 20.394-13.311C778.283 725.504 885.333 587.69 885.333 464.98c0-63.146-22.613-145.578-74.624-211.626-51.157-64.854-131.242-114.688-250.112-114.688-81.578 0-141.824 18.218-184.32 50.986zm279.467 612.992v.086-.086z" fill="#333"/><path d="M543.445 438.997a32 32 0 0 1 20.224 40.448c-5.376 16.214.171 27.862 11.264 38.699a92.075 92.075 0 0 0 25.174 17.067l.213.085a32 32 0 0 1-24.661 59.05l12.245-29.567a3700.907 3700.907 0 0 1-12.245 29.568h-.086l-.17-.086-.342-.17-1.024-.427a124.245 124.245 0 0 1-13.738-7.125 155.947 155.947 0 0 1-29.995-22.528c-21.504-20.907-43.264-57.046-27.307-104.79a32 32 0 0 1 40.448-20.224z" fill="#333"/><path d="M699.947 500.907a32 32 0 0 1 5.034 45.013l-25.002-19.968 25.002 19.968-.085.085-.043.086-.213.256-.597.725a118.912 118.912 0 0 1-8.619 9.259 166.91 166.91 0 0 1-24.064 19.754c-20.181 13.611-52.181 28.16-90.155 20.011a32 32 0 0 1 13.44-62.592c14.08 3.03 28.118-1.835 40.96-10.496a103.467 103.467 0 0 0 18.603-16.213l.81-.854m44.929-4.992a32 32 0 0 0-44.886 4.864l44.886-4.864z" fill="#333"/><path d="M814.08 447.403a32 32 0 0 1 26.027 37.034c-6.443 36.566-25.003 66.987-60.374 79.958-32.042 11.733-70.485 5.93-110.506-8.32a32 32 0 1 1 21.504-60.288c35.498 12.629 56.234 12.458 66.986 8.533 7.552-2.773 15.531-9.259 19.328-30.976a32 32 0 0 1 37.035-25.941zm-423.381-69.504a32 32 0 0 1 45.184 2.858c20.65 23.467 49.066 46.635 103.509 57.174a32 32 0 1 1-12.117 62.805c-70.699-13.653-111.062-45.483-139.435-77.653a32 32 0 0 1 2.859-45.184z" fill="#333"/><path d="M415.787 234.368a32 32 0 0 1 20.608 40.32c-19.883 61.44-13.099 91.819-.512 106.07a32 32 0 1 1-48.043 42.325c-36.437-41.387-33.621-102.4-12.33-168.107a32 32 0 0 1 40.277-20.608z" fill="#333"/><path d="M586.539 202.24h1.664a32 32 0 0 1 1.792.085c23.466 1.494 91.392 6.486 131.584 62.464a32.128 32.128 0 0 1 3.413 5.974c2.816 6.698 5.504 9.642 6.955 10.965a10.41 10.41 0 0 0 4.565 2.347 41.984 41.984 0 0 0 10.155.981h5.205l2.688-.085c2.816 0 6.357 0 9.984.213a32 32 0 0 1 9.77 2.219c27.734 10.965 47.617 40.021 58.582 71.936 11.563 33.621 15.701 76.586 7.168 125.098a32 32 0 1 1-63.019-11.093c6.827-38.827 3.072-70.741-4.693-93.184-6.23-18.261-13.952-27.35-18.475-31.147a284.587 284.587 0 0 1-7.68 0 104.192 104.192 0 0 1-25.941-2.986c-21.333-5.675-40.021-19.926-52.437-46.251-21.078-26.923-57.344-32-81.195-33.536-21.845-.512-37.248-10.965-44.928-16.213a79.061 79.061 0 0 0-3.072-2.006c-6.016-3.626-15.53-8.746-40.107-9.386-40.661 5.802-56.448 20.693-62.506 37.205a32 32 0 0 1-60.118-22.016c17.664-48.085 61.782-71.765 116.566-78.933a32 32 0 0 1 4.522-.256c37.419.426 58.539 8.789 74.752 18.602 12.374 7.51 13.526 8.79 14.806 8.96zm41.13 363.648a32 32 0 0 1-20.224 40.448c-23.125 7.723-41.984 25.173-56.96 46.805a237.141 237.141 0 0 0-29.354 60.587 32 32 0 1 1-60.928-19.456 301.141 301.141 0 0 1 37.674-77.568c19.542-28.288 48.47-57.43 89.344-71.04a32 32 0 0 1 40.448 20.224z" fill="#333"/><path d="M663.85 402.261c-10.538-88.32-132.693-136.448-175.829-122.368-43.093 14.08 4.182 35.328 31.744 41.003s55.126 11.35 64.982 19.115c9.898 7.808 39.552 31.146 41.642 48.81 2.134 17.664-45.824 4.608-61.781-4.01-15.957-8.576-54.059 8.874-44.203 16.64 9.899 7.765 67.115 36.778 84.779 34.688 17.664-2.134 27.563 5.674 47.317 21.205 19.755 15.573 64.982 19.115 62.891 1.45-2.133-17.663-44.245-45.482-51.541-56.533z" fill="#92C0C5"/><path d="M529.92 291.072c-16.939-3.755-30.464-3.67-38.613-1.024a10.667 10.667 0 1 1-6.614-20.267c13.44-4.394 31.36-3.626 49.792.427 18.774 4.181 39.424 12.032 58.966 23.21 37.888 21.675 73.642 57.174 80.597 104.534a110.933 110.933 0 0 0 7.68 7.339l6.4 5.546c3.413 2.987 7.168 6.23 10.581 9.302 5.974 5.376 12.118 11.264 16.982 17.152 4.565 5.504 9.386 12.586 10.24 20.266a18.645 18.645 0 0 1-3.072 12.928 21.973 21.973 0 0 1-9.259 7.467 49.493 49.493 0 0 1-21.973 3.243c-14.976-.683-33.579-5.931-45.739-15.446-20.437-16.085-26.88-20.522-39.467-19.029-6.912.853-15.786-1.323-23.765-3.84a264.96 264.96 0 0 1-27.136-10.667 401.92 401.92 0 0 1-25.216-12.373 132.139 132.139 0 0 1-16.47-10.027 14.25 14.25 0 0 1-5.589-12.8 17.45 17.45 0 0 1 4.864-9.941c3.968-4.224 9.899-7.552 15.659-9.941 5.973-2.475 12.928-4.395 19.797-5.035a37.29 37.29 0 0 1 21.12 3.328c6.742 3.67 21.504 8.747 34.219 10.667 5.461.853 9.515.981 12.032.64a10.667 10.667 0 0 1 21.077.81 17.152 17.152 0 0 1-3.925 13.483 20.31 20.31 0 0 1-10.581 6.144c-6.614 1.707-14.678 1.152-21.846.043a146.432 146.432 0 0 1-41.13-13.014 16.939 16.939 0 0 0-8.96-.853 49.664 49.664 0 0 0-15.915 4.523l5.76 3.2c6.827 3.626 15.19 7.808 23.85 11.69 8.662 3.883 17.366 7.382 24.833 9.771 8.021 2.56 12.928 3.243 14.805 2.987 22.101-2.603 35.328 7.808 53.547 22.186l1.621 1.28c7.68 5.974 21.547 10.326 33.579 10.88a31.36 31.36 0 0 0 11.733-1.194 32.427 32.427 0 0 0-5.12-7.766 151.595 151.595 0 0 0-14.848-14.933c-3.413-3.072-6.699-5.888-9.813-8.619-2.39-2.048-4.694-4.01-6.998-6.101a78.55 78.55 0 0 1-12.672-13.141l-1.365-2.091-.341-2.517c-4.694-39.382-34.56-71.083-70.4-91.563a193.28 193.28 0 0 0-52.907-20.907zm87.893 95.232s.043 0 0 0z" fill="#333"/><path d="M578.176 324.608c4.779 1.877 9.472 4.139 13.184 7.04l.085.043c4.95 3.925 15.275 12.032 24.662 21.504 4.693 4.778 9.386 10.112 13.141 15.658 3.627 5.419 6.955 11.819 7.765 18.688a10.667 10.667 0 0 1-21.205 2.56 23.424 23.424 0 0 0-4.267-9.301 91.307 91.307 0 0 0-10.624-12.587 247.467 247.467 0 0 0-22.741-19.797 32.256 32.256 0 0 0-7.723-3.925 141.141 141.141 0 0 0-14.336-4.523c-11.178-2.987-24.618-5.76-38.485-8.619-14.421-2.986-35.03-10.112-46.848-19.413a32.17 32.17 0 0 1-8.192-9.088 18.347 18.347 0 0 1-1.92-14.379 22.187 22.187 0 0 1 9.088-11.733c3.968-2.773 9.003-5.035 14.933-6.955a10.667 10.667 0 1 1 6.614 20.267 40.107 40.107 0 0 0-8.832 3.84c.426.384.896.81 1.536 1.28 7.978 6.315 24.789 12.587 37.93 15.275l.214.042c13.61 2.816 27.648 5.718 39.509 8.875 5.973 1.621 11.605 3.328 16.512 5.248z" fill="#333"/></svg>