<svg class="icon" viewBox="0 0 1024 1024" xmlns="http://www.w3.org/2000/svg" width="200" height="200"><path d="M496.341 128.17c164.992 9.643 169.686 178.39 149.76 247.809 199.638-63.446 276.139 26.453 289.451 79.274 23.979 126.891-96.47 165.206-159.701 168.534 127.744 158.549 66.56 237.866 19.968 257.706-143.787 39.638-226.262-62.805-249.6-118.954-63.83 134.784-172.971 142.08-219.563 128.853-135.765-39.68-76.544-181.76-29.952-247.808C105.045 611.883 77.099 518.059 87.083 475.051c31.957-158.55 199.68-132.139 279.466-99.072-31.914-206.166 73.216-251.136 129.792-247.808z" fill="#FFB1CE"/><path d="M423.253 193.536c-21.76 27.093-40.234 79.573-25.045 177.493a32 32 0 0 1-43.861 34.518c-36.779-15.232-92.374-28.118-140.374-20.31-23.424 3.84-43.69 12.331-59.562 26.582-15.659 14.08-29.142 35.669-35.968 69.546a30.976 30.976 0 0 1-.171.982c-2.475 10.581-1.408 34.176 21.76 59.733 23.21 25.643 70.4 54.784 161.92 69.93a32 32 0 0 1 20.907 50.006c-21.675 30.763-44.587 77.227-47.659 117.76-1.45 19.627 1.877 35.712 9.856 48.128 7.808 12.117 22.315 24.49 50.432 32.725 33.493 9.387 125.525 7.083 181.845-111.786a32 32 0 0 1 58.454 1.408c9.642 23.21 32.426 57.429 67.84 81.066 33.834 22.528 80.17 36.182 141.397 19.926 14.165-6.699 31.019-22.614 34.432-50.475 3.67-29.952-7.253-80.896-68.523-156.928a32 32 0 0 1 23.254-52.053c27.648-1.451 66.816-10.71 95.189-31.702 13.781-10.154 24.405-22.57 30.677-37.717 6.144-14.805 8.96-34.261 4.267-60.16-4.693-17.408-20.95-44.501-57.045-61.184-36.438-16.81-96.854-24.661-191.488 5.419a32 32 0 0 1-40.448-39.339c8.448-29.44 11.733-81.835-4.779-126.293-8.021-21.718-20.395-40.534-38.144-54.4-17.579-13.782-42.368-24.235-77.952-26.283-19.67-1.152-49.365 6.187-71.253 33.408zm-49.92-40.064A150.613 150.613 0 0 1 498.22 96.213c46.933 2.731 84.565 17.024 113.664 39.766 28.885 22.613 47.445 52.181 58.709 82.56 14.08 37.93 17.408 78.677 15.019 113.621 80.512-17.75 142.421-10.496 188.501 10.795 54.827 25.301 83.541 68.992 92.501 104.533l.427 1.835c6.955 36.992 3.712 69.632-7.893 97.578a153.515 153.515 0 0 1-51.755 64.683c-23.21 17.152-49.835 28.288-75.008 35.157 41.984 63.446 56.064 117.248 50.603 161.792-6.784 55.168-42.539 88.704-74.667 102.4a32.085 32.085 0 0 1-4.01 1.366c-81.366 22.442-147.457 4.736-196.182-27.734a254.72 254.72 0 0 1-61.696-58.666c-72.79 103.509-176.128 111.146-228.523 96.256l-.213-.043c-39.68-11.605-68.608-31.83-86.443-59.563-17.621-27.434-22.058-58.453-19.84-87.552 2.859-38.4 17.494-77.226 34.347-109.226-74.027-18.262-122.88-47.275-153.173-80.726-36.096-39.85-44.118-84.394-36.779-116.693 9.173-45.227 28.587-79.616 55.808-104.107 27.05-24.32 59.648-36.906 92.117-42.154 42.923-6.998 87.808-1.664 125.696 8.021-4.736-80.853 13.014-138.155 43.904-176.64z" fill="#333"/><path d="M553.344 529.664a32 32 0 0 1 4.992 45.013l-85.333 106.667a32 32 0 1 1-50.006-40.021l85.334-106.667a32 32 0 0 1 45.013-4.992z" fill="#333"/><path d="M373.76 528.085a32 32 0 0 1 36.821-26.325l128 21.333a32 32 0 1 1-10.496 63.147l-128-21.333a32 32 0 0 1-26.325-36.822z" fill="#333"/><path d="M507.477 373.675a32 32 0 0 1 36.182 27.136l21.333 149.333a32 32 0 0 1-63.36 9.045l-21.333-149.333a32 32 0 0 1 27.178-36.181z" fill="#333"/><path d="M691.712 501.888a32 32 0 0 1-20.267 40.448l-128 42.667a32 32 0 0 1-20.224-60.672l128-42.667a32 32 0 0 1 40.491 20.224z" fill="#333"/><path d="M508.33 534.656a32 32 0 0 1 45.014-4.992l106.667 85.333a32 32 0 1 1-40.022 50.006l-106.666-85.334a32 32 0 0 1-4.992-45.013z" fill="#333"/></svg>